<svg width="68" height="24" viewBox="0 0 68 24" fill="none" xmlns="http://www.w3.org/2000/svg">
    <g clip-path="url(#clip0_606_1158)">
        <path d="M65.0054 0.366807C65.0882 0.396805 65.1709 0.426802 65.2562 0.457708C65.5188 0.553001 65.7811 0.649105 66.0433 0.745237C66.222 0.810257 66.4007 0.875223 66.5795 0.940134C67.0161 1.09881 67.4523 1.25821 67.8884 1.418C67.9594 3.26106 68.0155 5.1011 67.9961 6.94557C67.5668 7.08145 67.1484 7.18409 66.7013 7.25946C66.5758 7.28081 66.4503 7.30215 66.321 7.32414C66.187 7.34647 66.053 7.3688 65.9149 7.39181C65.776 7.41521 65.6371 7.43862 65.494 7.46273C65.2009 7.51206 64.9077 7.56109 64.6145 7.60991C64.2395 7.67237 63.8647 7.73559 63.49 7.79905C63.1311 7.85969 62.7722 7.91968 62.4132 7.97972C62.2118 8.01381 62.2118 8.01381 62.0064 8.04858C61.8812 8.06931 61.7561 8.09005 61.6272 8.1114C61.5174 8.12977 61.4076 8.14814 61.2945 8.16706C60.9927 8.20625 60.9927 8.20625 60.454 8.20625C60.454 9.96634 60.454 11.7264 60.454 13.5399C59.6035 13.7043 58.7529 13.8687 57.9023 14.0325C57.5061 14.1088 57.11 14.1853 56.714 14.2619C56.3326 14.3358 55.9512 14.4093 55.5697 14.4826C55.4241 14.5107 55.2785 14.5388 55.1329 14.5671C54.9292 14.6066 54.7254 14.6457 54.5216 14.6848C54.4055 14.7072 54.2895 14.7296 54.1699 14.7527C53.8815 14.8005 53.8815 14.8005 53.5583 14.8005C53.5585 14.8536 53.5588 14.9067 53.559 14.9614C53.5614 15.52 53.5631 16.0786 53.5642 16.6372C53.5648 16.8449 53.5655 17.0527 53.5664 17.2604C53.5678 17.5611 53.5684 17.8618 53.5688 18.1625C53.5694 18.2535 53.5699 18.3446 53.5705 18.4384C53.5706 19.1365 53.5186 19.8268 53.4506 20.5221C51.9186 20.8092 50.3867 21.0962 48.8545 21.3823C48.7137 21.4086 48.7137 21.4086 48.5701 21.4355C48.177 21.5089 47.7838 21.5823 47.3907 21.6557C46.057 21.9046 44.7236 22.1544 43.3903 22.405C42.4337 22.5848 41.4769 22.7639 40.5201 22.9428C39.934 23.0523 39.348 23.1622 38.7621 23.2726C38.2062 23.3775 37.65 23.4816 37.0938 23.5851C36.8881 23.6236 36.6825 23.6623 36.477 23.7012C36.1943 23.7548 35.9115 23.8074 35.6285 23.8598C35.5469 23.8755 35.4653 23.8912 35.3812 23.9073C34.3398 24.0974 33.4577 23.9659 32.4265 23.7747C32.2847 23.749 32.143 23.7233 32.0013 23.6977C31.6174 23.6282 31.2337 23.5578 30.85 23.4872C30.4442 23.4127 30.0382 23.3391 29.6322 23.2653C28.8599 23.1249 28.0878 22.9837 27.3157 22.8422C26.4517 22.6839 25.5874 22.5265 24.7231 22.3692C22.848 22.0278 20.9731 21.6855 19.0987 21.3409C18.8516 21.2955 18.6044 21.2501 18.3573 21.2048C17.9297 21.1263 17.5021 21.0476 17.0746 20.9687C16.9113 20.9387 16.748 20.9086 16.5847 20.8786C16.3588 20.8372 16.1331 20.7955 15.9073 20.7538C15.7785 20.7301 15.6496 20.7063 15.5169 20.6819C15.2011 20.619 15.2011 20.619 14.8779 20.5221C14.7492 16.6786 14.7492 16.6786 14.7701 14.8005C14.5713 14.784 14.5713 14.784 14.3686 14.767C13.7265 14.7025 13.0997 14.5839 12.4679 14.4642C12.3433 14.4409 12.2187 14.4175 12.0903 14.3935C11.8286 14.3445 11.5669 14.2952 11.3052 14.2458C10.9039 14.17 10.5024 14.0949 10.1009 14.0198C9.84611 13.972 9.59134 13.9241 9.33658 13.8763C9.21638 13.8537 9.09617 13.8312 8.97233 13.808C8.80557 13.7764 8.80557 13.7764 8.63544 13.7442C8.53764 13.7258 8.43984 13.7074 8.33907 13.6884C8.08994 13.6368 8.08993 13.6368 7.7667 13.5399C7.7667 11.8118 7.7667 10.0837 7.7667 8.30322C7.41114 8.27122 7.05558 8.23922 6.68925 8.20625C6.45511 8.17354 6.22141 8.13806 5.98851 8.09886C5.86236 8.07782 5.73622 8.05678 5.60625 8.03511C5.47377 8.01258 5.3413 7.99005 5.20481 7.96684C5.066 7.94353 4.92719 7.92022 4.78418 7.89621C4.49265 7.84722 4.20117 7.79797 3.90974 7.74851C3.53643 7.68515 3.16301 7.62234 2.78955 7.55972C2.43184 7.49968 2.0742 7.4393 1.71657 7.37893C1.58256 7.3564 1.44856 7.33387 1.3105 7.31066C1.18673 7.28963 1.06296 7.26859 0.93544 7.24692C0.826478 7.22847 0.717513 7.21003 0.605248 7.19103C0.332293 7.13952 0.332295 7.13952 0.00905997 7.04255C0.0063626 6.48913 0.00442526 5.93572 0.00314137 5.3823C0.00260517 5.1947 0.00187427 5.00709 0.000931752 4.81949C-0.00448004 3.71323 0.0111053 2.61765 0.116805 1.51498C0.961537 1.16279 1.81352 0.830859 2.67575 0.514921C2.79255 0.470857 2.90936 0.426792 3.02971 0.381391C3.14346 0.339827 3.25721 0.298262 3.37441 0.255438C3.47576 0.217897 3.57712 0.180355 3.68154 0.141677C4.27995 -0.0132685 4.85485 0.0622583 5.4571 0.169259C5.59499 0.193432 5.73288 0.217606 5.87495 0.242512C6.026 0.269664 6.17704 0.296827 6.32808 0.324002C6.48873 0.352416 6.6494 0.380773 6.81007 0.409079C7.24632 0.486095 7.68237 0.563902 8.11841 0.641847C8.57956 0.724136 9.04087 0.805685 9.50216 0.887314C10.3804 1.04283 11.2584 1.199 12.1364 1.35541C13.2144 1.5474 14.2926 1.7386 15.3707 1.92977C16.499 2.12986 17.6274 2.33004 18.7555 2.53077C20.2704 2.80026 21.7853 3.06968 23.3014 3.33326C23.4105 3.35224 23.5195 3.37123 23.6319 3.39079C24.1065 3.47338 24.5812 3.5556 25.0561 3.63704C25.2113 3.66393 25.3664 3.69083 25.5215 3.71775C25.6504 3.73987 25.7793 3.76198 25.912 3.78477C26.1911 3.84238 26.1911 3.84238 26.2988 3.93935C26.3089 4.11196 26.3115 4.28493 26.3111 4.45777C26.3111 4.56843 26.3111 4.67909 26.311 4.7931C26.3105 4.91351 26.3099 5.03392 26.3094 5.15798C26.3091 5.34181 26.3091 5.34181 26.3089 5.52935C26.3084 5.8557 26.3074 6.18204 26.3062 6.50838C26.3051 6.84118 26.3046 7.17398 26.3041 7.50678C26.3029 8.16016 26.3011 8.81354 26.2988 9.46692C27.1588 9.59995 27.1588 9.59995 28.02 9.72619C28.7521 9.83357 29.4667 9.95596 30.1821 10.1332C33.6426 10.9845 36.6392 10.4816 40.0564 9.7611C40.1793 9.73534 40.3021 9.70958 40.4287 9.68303C40.5355 9.66002 40.6423 9.63701 40.7523 9.6133C41.0599 9.5639 41.0599 9.5639 41.7064 9.5639C41.7064 7.6758 41.7064 5.78769 41.7064 3.84238C42.5541 3.65163 43.3918 3.47342 44.2481 3.32478C44.3661 3.30404 44.484 3.2833 44.6056 3.26193C44.9939 3.19374 45.3824 3.12599 45.7708 3.05824C46.0467 3.00987 46.3226 2.96148 46.5985 2.91306C47.3328 2.78426 48.0672 2.65589 48.8016 2.52761C49.255 2.44842 49.7083 2.36914 50.1617 2.28983C50.2366 2.27673 50.3114 2.26364 50.3886 2.25014C50.6153 2.21047 50.8421 2.1708 51.0689 2.13113C51.3701 2.07844 51.6713 2.02575 51.9725 1.97307C52.0467 1.96009 52.1209 1.94711 52.1973 1.93373C52.6452 1.85539 53.0931 1.7771 53.541 1.69884C55.1746 1.41338 56.8078 1.12633 58.4401 0.834943C58.9495 0.744094 59.4589 0.653726 59.9684 0.563359C60.4154 0.48399 60.8623 0.403784 61.3091 0.32294C61.6374 0.263791 61.966 0.205919 62.2945 0.147856C62.407 0.12717 62.5195 0.106484 62.6354 0.0851707C63.5487 -0.0741105 64.1584 0.0543676 65.0054 0.366807Z" fill="#03447F"/>
        <path d="M14.77 14.8005C15.7909 14.9264 16.7899 15.1066 17.7951 15.3074C18.2358 15.3953 18.6767 15.4819 19.1177 15.5684C19.2063 15.5858 19.2949 15.6031 19.3861 15.621C20.1913 15.7783 20.9986 15.9243 21.8071 16.0673C22.8397 16.2501 23.8686 16.4436 24.896 16.6482C26.0639 16.8807 27.2322 17.1124 28.4035 17.3306C28.6092 17.3692 28.8147 17.4091 29.0202 17.449C30.0499 17.6386 30.7895 17.5817 31.7803 17.2855C31.9314 17.2419 32.0825 17.1984 32.2336 17.1548C32.4827 17.082 32.7315 17.0084 32.9802 16.9344C33.0709 16.9082 33.1616 16.8821 33.255 16.8552C33.3686 16.8213 33.3686 16.8213 33.4844 16.7866C34.0991 16.6715 34.6173 16.752 35.2029 16.9344C35.3361 16.9742 35.4693 17.014 35.6065 17.055C35.8143 17.1183 36.0219 17.1822 36.229 17.2472C37.1407 17.5313 37.8471 17.686 38.7972 17.5158C38.9964 17.482 38.9964 17.482 39.1997 17.4475C39.6798 17.3633 40.1576 17.2699 40.6356 17.1764C40.8157 17.1417 40.9959 17.107 41.176 17.0724C41.6518 16.9809 42.1273 16.8886 42.6028 16.7961C43.3567 16.6496 44.1108 16.504 44.8649 16.3583C45.0533 16.3218 45.2418 16.2854 45.4302 16.2489C47.0256 15.9401 48.6232 15.6413 50.2223 15.3485C50.345 15.326 50.345 15.326 50.4701 15.3031C50.6288 15.274 50.7874 15.245 50.946 15.2161C51.3172 15.1481 51.6877 15.0785 52.0576 15.005C52.1923 14.9783 52.3269 14.9516 52.4656 14.924C52.5834 14.9002 52.7011 14.8764 52.8224 14.8518C53.1273 14.8005 53.1273 14.8005 53.5582 14.8005C53.561 15.4127 53.5629 16.025 53.5642 16.6372C53.5647 16.8449 53.5654 17.0527 53.5664 17.2604C53.5677 17.5611 53.5683 17.8618 53.5688 18.1625C53.5693 18.2535 53.5699 18.3446 53.5704 18.4384C53.5705 19.1365 53.5185 19.8268 53.4505 20.5221C51.9186 20.8092 50.3866 21.0962 48.8544 21.3823C48.7606 21.3999 48.6667 21.4174 48.57 21.4354C48.1769 21.5089 47.7838 21.5823 47.3906 21.6557C46.057 21.9046 44.7235 22.1544 43.3902 22.405C42.4336 22.5848 41.4769 22.7639 40.5201 22.9427C39.934 23.0523 39.3479 23.1621 38.7621 23.2726C38.2061 23.3775 37.65 23.4816 37.0937 23.5851C36.888 23.6236 36.6824 23.6622 36.4769 23.7012C36.1943 23.7548 35.9114 23.8074 35.6285 23.8597C35.506 23.8833 35.506 23.8833 35.3811 23.9073C34.3397 24.0974 33.4577 23.9659 32.4264 23.7747C32.2847 23.749 32.1429 23.7233 32.0012 23.6977C31.6173 23.6282 31.2336 23.5578 30.8499 23.4872C30.4441 23.4127 30.0381 23.3391 29.6321 23.2653C28.8598 23.1249 28.0877 22.9837 27.3157 22.8422C26.4516 22.6839 25.5873 22.5265 24.7231 22.3692C22.848 22.0278 20.973 21.6855 19.0986 21.3409C18.8515 21.2955 18.6043 21.2501 18.3572 21.2048C17.9296 21.1263 17.5021 21.0476 17.0745 20.9687C16.9112 20.9386 16.7479 20.9086 16.5846 20.8786C16.3588 20.8372 16.133 20.7955 15.9073 20.7538C15.7784 20.7301 15.6496 20.7063 15.5168 20.6819C15.201 20.619 15.201 20.619 14.8778 20.5221C14.7492 16.6786 14.7492 16.6786 14.77 14.8005Z" fill="#F80A0F"/>
        <path d="M5.4571 0.169304C5.59499 0.193478 5.73288 0.217652 5.87495 0.242558C6.026 0.269709 6.17704 0.296873 6.32808 0.324048C6.48873 0.352462 6.6494 0.380819 6.81007 0.409124C7.24631 0.486141 7.68238 0.563947 8.11842 0.641893C8.57957 0.724182 9.04088 0.80573 9.50217 0.887359C10.3804 1.04288 11.2584 1.19905 12.1364 1.35545C13.2144 1.54745 14.2926 1.73864 15.3707 1.92982C16.499 2.12991 17.6274 2.33009 18.7555 2.53082C20.2704 2.80031 21.7853 3.06973 23.3014 3.3333C23.4105 3.35229 23.5195 3.37127 23.6319 3.39084C24.1065 3.47343 24.5812 3.55565 25.0561 3.63708C25.2113 3.66397 25.3664 3.69088 25.5215 3.71779C25.6504 3.73991 25.7793 3.76203 25.9121 3.78482C26.1911 3.84242 26.1911 3.84242 26.2988 3.9394C26.3117 4.11038 26.3172 4.28183 26.3196 4.4532C26.3213 4.56292 26.3231 4.67264 26.3249 4.78569C26.3296 5.28791 26.3341 5.79013 26.3366 6.29236C26.3384 6.62361 26.3432 6.95477 26.3487 7.28598C26.3532 7.60158 26.3539 7.91719 26.3552 8.23281C26.3577 8.35191 26.3601 8.47102 26.3626 8.59373C26.3623 8.70406 26.362 8.81439 26.3617 8.92807C26.3626 9.02532 26.3634 9.12258 26.3643 9.22279C26.2988 9.46697 26.2988 9.46697 26.0459 9.63774C25.5245 9.85695 24.9967 10.0564 24.4614 10.2462C24.3226 10.2961 24.1843 10.3472 24.0466 10.3995C23.0422 10.7804 22.3019 10.8719 21.2348 10.6307C21.0525 10.5987 20.8699 10.5675 20.6873 10.5371C20.5173 10.506 20.3474 10.4745 20.1776 10.4428C18.7404 10.1766 17.2978 9.9407 15.8523 9.71465C14.6225 9.522 13.3954 9.32105 12.1708 9.10331C10.5762 8.82043 8.97639 8.56484 7.37612 8.30933C5.57219 8.02115 3.76891 7.73082 1.96867 7.42443C1.88509 7.41028 1.80151 7.39612 1.7154 7.38154C1.48481 7.34242 1.25429 7.303 1.0238 7.26344C0.896879 7.24168 0.76996 7.21992 0.639194 7.1975C0.332295 7.13957 0.332295 7.13957 0.00905997 7.04259C0.0063626 6.48918 0.00442526 5.93577 0.00314137 5.38235C0.00260517 5.19474 0.00187427 5.00714 0.000931752 4.81953C-0.00448004 3.71328 0.0111053 2.6177 0.116805 1.51502C0.961537 1.16284 1.81352 0.830905 2.67575 0.514967C2.79255 0.470902 2.90936 0.426837 3.02971 0.381437C3.14346 0.339872 3.25721 0.298308 3.37441 0.255483C3.47576 0.217942 3.57712 0.180401 3.68154 0.141722C4.27995 -0.0132229 4.85485 0.062304 5.4571 0.169304Z" fill="#FEAA09"/>
        <path d="M65.0054 0.366807C65.1296 0.411803 65.1296 0.411803 65.2563 0.457708C65.5189 0.553001 65.7811 0.649105 66.0433 0.745237C66.222 0.810257 66.4007 0.875223 66.5795 0.940134C67.0161 1.09881 67.4523 1.25821 67.8884 1.418C67.9594 3.26106 68.0155 5.10109 67.9962 6.94557C67.5718 7.07971 67.1587 7.18227 66.7167 7.25639C66.5332 7.28746 66.5332 7.28746 66.3459 7.31916C66.2149 7.34088 66.084 7.36261 65.949 7.38499C65.8124 7.40793 65.6758 7.43088 65.5351 7.45451C65.246 7.50302 64.9569 7.55124 64.6678 7.59925C64.3017 7.66007 63.9356 7.72149 63.5697 7.78312C63.2158 7.84264 62.8619 7.90169 62.5079 7.96078C62.3787 7.9825 62.2494 8.00423 62.1163 8.02661C61.3604 8.1518 60.6042 8.25832 59.843 8.3535C59.3121 8.42262 58.7852 8.50827 58.2579 8.59642C58.1479 8.6146 58.038 8.63278 57.9247 8.6515C57.6942 8.68968 57.4637 8.72798 57.2332 8.76641C56.888 8.82396 56.5426 8.88107 56.1973 8.93811C55.0586 9.12676 53.9219 9.3218 52.7872 9.5284C52.0406 9.66389 51.2919 9.78599 50.5415 9.90331C49.5688 10.057 48.5986 10.2166 47.633 10.4033C47.4752 10.433 47.3169 10.4609 47.1583 10.4871C46.9436 10.5228 46.7299 10.5631 46.5168 10.6056C45.3687 10.7991 44.6208 10.6105 43.565 10.2185C43.4195 10.1676 43.2739 10.1169 43.1281 10.0666C42.1146 9.71186 42.1146 9.71186 41.7064 9.46692C41.6675 9.23007 41.6675 9.23007 41.6697 8.92859C41.6697 8.816 41.6697 8.7034 41.6698 8.5874C41.6714 8.46537 41.6731 8.34334 41.6748 8.21761C41.6753 8.09304 41.6757 7.96848 41.6762 7.84013C41.6774 7.50883 41.6806 7.17757 41.6842 6.84628C41.6875 6.50828 41.689 6.17027 41.6906 5.83226C41.6941 5.16895 41.6997 4.50566 41.7064 3.84237C42.5494 3.64595 43.3932 3.47319 44.2481 3.32478C44.4251 3.29367 44.4251 3.29367 44.6056 3.26193C44.994 3.19374 45.3824 3.12599 45.7708 3.05824C46.0467 3.00987 46.3227 2.96148 46.5986 2.91306C47.3329 2.78426 48.0672 2.65589 48.8016 2.52761C49.255 2.44842 49.7084 2.36914 50.1617 2.28983C50.2366 2.27673 50.3115 2.26364 50.3886 2.25014C50.6154 2.21047 50.8422 2.1708 51.0689 2.13113C51.3701 2.07844 51.6713 2.02575 51.9725 1.97307C52.0467 1.96009 52.1209 1.94711 52.1974 1.93373C52.6452 1.85539 53.0931 1.7771 53.541 1.69884C55.1746 1.41338 56.8078 1.12633 58.4401 0.834943C58.9495 0.744094 59.459 0.653726 59.9684 0.563359C60.4155 0.48399 60.8624 0.403784 61.3091 0.32294C61.6374 0.263791 61.966 0.205919 62.2945 0.147856C62.407 0.12717 62.5195 0.106484 62.6354 0.0851707C63.5488 -0.0741105 64.1584 0.0543676 65.0054 0.366807Z" fill="#FEAA09"/>
        <path d="M60.4542 8.20605C60.4542 9.96615 60.4542 11.7262 60.4542 13.5397C53.8129 14.824 53.8129 14.824 51.6901 15.1851C49.2322 15.6034 46.784 16.068 44.3396 16.5459C44.2592 16.5616 44.1787 16.5774 44.0958 16.5936C43.9332 16.6253 43.7706 16.6571 43.608 16.6889C42.5274 16.9001 41.4465 17.1105 40.3649 17.3175C40.1835 17.3523 40.0022 17.3873 39.8209 17.4225C39.5697 17.4712 39.3183 17.5192 39.0669 17.5672C38.9928 17.5817 38.9186 17.5962 38.8423 17.6111C38.451 17.6849 38.1257 17.7096 37.72 17.7096C37.6845 15.8215 37.6489 13.9334 37.6123 11.9881C37.0967 11.8261 36.5812 11.6641 36.05 11.4971C35.8086 11.4199 35.8086 11.4199 35.5624 11.3411C35.4333 11.3014 35.3042 11.2618 35.1712 11.221C35.0403 11.1799 34.9094 11.1387 34.7745 11.0963C34.0779 10.9586 33.5097 11.0944 32.8505 11.3225C32.7288 11.3625 32.6071 11.4024 32.4818 11.4435C32.2316 11.5272 31.9822 11.6125 31.7335 11.6996C30.8647 11.9802 30.2412 12.011 29.3426 11.839C29.0589 11.7864 28.7742 11.7411 28.4889 11.6962C27.7785 11.5844 27.0691 11.4682 26.3597 11.3517C25.9933 11.2916 25.627 11.2317 25.2606 11.1718C25.0341 11.1348 24.8077 11.0977 24.5813 11.0604C24.0416 10.9721 23.5028 10.8899 22.959 10.8244C22.959 10.7604 22.959 10.6964 22.959 10.6304C23.396 10.48 23.8331 10.3299 24.2703 10.18C24.4189 10.129 24.5675 10.0779 24.7161 10.0268C24.93 9.95315 25.144 9.87981 25.358 9.80652C25.4866 9.76234 25.6153 9.71816 25.7478 9.67264C26.2932 9.49569 26.5634 9.45428 27.1344 9.59145C27.261 9.62072 27.3876 9.64998 27.518 9.68013C27.586 9.69603 27.654 9.71193 27.7241 9.7283C31.6339 10.6266 34.9257 10.896 38.855 9.94088C39.2297 9.85028 39.6055 9.76456 39.9827 9.68265C40.0547 9.66696 40.1267 9.65126 40.2009 9.6351C41.8518 9.29562 43.1477 9.76239 44.6253 10.4143C45.1952 10.6308 45.6536 10.6447 46.2555 10.5441C46.3818 10.5234 46.508 10.5027 46.6382 10.4813C46.7708 10.4585 46.9034 10.4357 47.04 10.4122C47.1768 10.3895 47.3135 10.3667 47.4544 10.3433C48.2129 10.2161 48.9669 10.078 49.7197 9.92622C50.254 9.82839 50.7914 9.75133 51.3296 9.6728C52.1974 9.54561 53.0606 9.40659 53.9222 9.24854C55.1059 9.03172 56.2912 8.82236 57.4775 8.61733C57.6833 8.5817 57.8891 8.5459 58.0948 8.50992C58.3857 8.45908 58.6767 8.40883 58.9677 8.35871C59.0554 8.34328 59.143 8.32785 59.2333 8.31195C59.3153 8.29797 59.3972 8.28398 59.4817 8.26958C59.5528 8.25726 59.6238 8.24494 59.6971 8.23224C59.9155 8.20605 59.9155 8.20605 60.4542 8.20605Z" fill="#04447F"/>
        <path d="M64.5366 0.196031C64.612 0.223204 64.6875 0.250378 64.7652 0.278376C64.8444 0.307572 64.9235 0.336768 65.0051 0.36685C65.1292 0.411845 65.1292 0.411845 65.2559 0.45775C65.5185 0.553043 65.7807 0.649147 66.0429 0.745279C66.2217 0.810299 66.4004 0.875265 66.5791 0.940176C67.0157 1.09885 67.452 1.25825 67.8881 1.41804C67.6483 1.63383 67.5694 1.64878 67.2469 1.70182C67.1581 1.7168 67.0694 1.73179 66.9779 1.74723C66.8806 1.76286 66.7833 1.77848 66.6831 1.79458C66.5813 1.81156 66.4795 1.82853 66.3746 1.84602C66.0374 1.90206 65.7001 1.95703 65.3628 2.01201C65.1267 2.05108 64.8906 2.09023 64.6545 2.12945C64.1703 2.20978 63.686 2.28972 63.2016 2.36933C62.2887 2.5195 61.3763 2.67258 60.4639 2.82576C60.1816 2.87313 59.8992 2.92039 59.6168 2.96761C58.0629 3.22746 56.5095 3.48954 54.9561 3.75201C53.1865 4.05099 51.4165 4.34817 49.6461 4.6436C49.5579 4.65834 49.4697 4.67309 49.3787 4.68828C49.2049 4.71732 49.0311 4.7463 48.8572 4.77522C48.3876 4.85363 47.9186 4.93436 47.4499 5.01762C47.2969 5.04459 47.2969 5.04459 47.1407 5.07211C46.9447 5.10672 46.7488 5.14176 46.553 5.17732C45.7063 5.32631 45.1359 5.3294 44.3365 5.00006C44.2609 4.96992 44.1853 4.93979 44.1074 4.90874C43.8676 4.8129 43.6286 4.71559 43.3896 4.61822C43.2265 4.55271 43.0633 4.4873 42.9001 4.42199C42.5015 4.26225 42.1036 4.10118 41.7061 3.93939C41.9719 3.70011 42.1245 3.69038 42.4911 3.62621C42.6121 3.60464 42.7332 3.58307 42.8579 3.56084C43.0584 3.52632 43.0584 3.52632 43.2629 3.4911C43.4048 3.46611 43.5467 3.44106 43.6885 3.41595C44.0763 3.34749 44.4643 3.27997 44.8524 3.21261C45.2645 3.14091 45.6764 3.06835 46.0883 2.9959C46.8761 2.85747 47.6641 2.71982 48.4521 2.58244C49.3237 2.43045 50.1951 2.27758 51.0665 2.12464C52.1713 1.93074 53.2762 1.73704 54.3813 1.54458C54.4645 1.53009 54.5477 1.5156 54.6334 1.50068C55.3003 1.38452 55.3003 1.38452 55.6315 1.32687C56.6652 1.14682 57.6985 0.964965 58.7313 0.780735C59.3075 0.677956 59.8839 0.576043 60.4603 0.474142C60.7268 0.426829 60.9932 0.37916 61.2594 0.331115C61.622 0.265717 61.9849 0.201544 62.3478 0.137647C62.4532 0.118301 62.5585 0.0989556 62.667 0.0790238C63.351 -0.0396631 63.8816 -0.0427717 64.5366 0.196031Z" fill="#FEB729"/>
        <path d="M5.45748 0.169482C5.59537 0.193656 5.73326 0.217829 5.87534 0.242735C6.02638 0.269887 6.17742 0.29705 6.32846 0.324225C6.48912 0.352639 6.64978 0.380996 6.81045 0.409302C7.2467 0.486318 7.68276 0.564125 8.1188 0.64207C8.57995 0.724359 9.04126 0.805908 9.50255 0.887537C10.3808 1.04306 11.2588 1.19922 12.1368 1.35563C13.1184 1.53046 14.1001 1.70463 15.0819 1.87871C16.3065 2.09587 17.5312 2.31312 18.7557 2.53078C21.2336 2.97123 23.7119 3.40959 26.1915 3.8426C26.1915 3.9066 26.1915 3.97061 26.1915 4.03655C25.726 4.23736 25.2588 4.43402 24.7894 4.62725C24.6305 4.69335 24.4721 4.76051 24.3142 4.82878C23.2614 5.2832 22.607 5.48012 21.4507 5.20025C21.0825 5.13617 20.7126 5.08106 20.3429 5.02448C20.1308 4.99059 19.9187 4.95649 19.7066 4.9222C19.596 4.90436 19.4855 4.88651 19.3716 4.86813C19.2577 4.84972 19.1438 4.83131 19.0264 4.81235C18.9093 4.79344 18.7923 4.77453 18.6716 4.75505C16.7486 4.44397 14.8295 4.11666 12.9115 3.78131C11.0752 3.46048 9.23616 3.15676 7.39445 2.86213C4.96276 2.47258 2.53942 2.04661 0.117188 1.61217C0.294398 1.29318 0.681377 1.22942 1.03386 1.1023C1.1565 1.05751 1.1565 1.05751 1.28162 1.01181C1.4552 0.948708 1.62893 0.885961 1.80281 0.823542C2.06733 0.728264 2.3309 0.631061 2.59448 0.533706C2.76334 0.472598 2.93225 0.411606 3.10122 0.350742C3.17948 0.321653 3.25773 0.292565 3.33836 0.262595C3.41346 0.23604 3.48855 0.209484 3.56592 0.182125C3.63091 0.158591 3.69591 0.135058 3.76287 0.110811C4.32889 -0.0111563 4.89478 0.0695087 5.45748 0.169482Z" fill="#FEB729"/>
        <path d="M36.2047 11.4549C36.4057 11.5155 36.4057 11.5155 36.6107 11.5773C37.5963 11.877 37.5963 11.877 37.7199 11.9883C37.73 12.1668 37.7325 12.3457 37.7321 12.5245C37.7321 12.6963 37.7321 12.6963 37.7321 12.8716C37.7315 12.9963 37.731 13.1209 37.7304 13.2493C37.7303 13.3762 37.7301 13.5031 37.7299 13.6338C37.7295 13.9716 37.7285 14.3094 37.7273 14.6472C37.7262 14.9917 37.7257 15.3362 37.7251 15.6807C37.724 16.3571 37.7222 17.0335 37.7199 17.7098C37.4306 17.6338 37.1413 17.5576 36.852 17.4814C36.7711 17.4601 36.6902 17.4389 36.6068 17.417C36.0012 17.2572 35.4015 17.0855 34.8032 16.9048C34.1522 16.765 33.6094 16.8457 32.98 17.028C32.9119 17.0473 32.8439 17.0667 32.7738 17.0867C32.5591 17.148 32.3448 17.2107 32.1306 17.2734C31.914 17.3359 31.6973 17.3981 31.4805 17.4602C31.2855 17.5162 31.0906 17.573 30.8958 17.6297C30.6087 17.7098 30.6087 17.7098 30.501 17.7098C30.501 15.8217 30.501 13.9336 30.501 11.9883C31.2403 11.7221 31.9719 11.4645 32.7232 11.2307C32.8191 11.1992 32.9149 11.1678 33.0136 11.1354C34.1916 10.7713 35.063 11.1031 36.2047 11.4549Z" fill="#03246D"/>
        <path d="M26.1913 9.4668C26.9901 9.53299 27.7679 9.69068 28.541 9.87754C32.1952 10.7534 35.1409 10.7976 38.797 9.93054C41.1365 9.37973 42.7732 9.46625 44.939 10.5335C45.0456 10.6295 45.0456 10.6295 45.1544 10.7275C44.3071 10.9262 43.4599 11.0967 42.5984 11.2377C42.4835 11.2567 42.3686 11.2756 42.2502 11.2952C42.0093 11.3347 41.7684 11.3741 41.5274 11.4132C41.1615 11.4729 40.7959 11.534 40.4303 11.5951C40.1945 11.6337 39.9588 11.6721 39.723 11.7105C39.6153 11.7287 39.5077 11.7468 39.3967 11.7656C38.4316 11.9196 37.5028 12.0125 36.5673 11.6968C36.4437 11.657 36.3202 11.6172 36.1929 11.5762C36.0055 11.5131 36.0055 11.5131 35.8143 11.4487C34.1412 10.886 33.3771 11.1239 31.7335 11.6997C30.8647 11.9803 30.2412 12.0111 29.3426 11.839C29.0589 11.7865 28.7742 11.7412 28.4889 11.6963C27.7785 11.5845 27.0691 11.4683 26.3597 11.3517C25.9933 11.2917 25.627 11.2317 25.2606 11.1719C25.0341 11.1349 24.8077 11.0978 24.5813 11.0605C24.0416 10.9722 23.5028 10.8899 22.959 10.8244C22.959 10.7604 22.959 10.6964 22.959 10.6305C23.1001 10.5828 23.1001 10.5828 23.2441 10.5341C23.5922 10.4163 23.9401 10.2983 24.288 10.1801C24.4388 10.1289 24.5896 10.0778 24.7405 10.0268C24.9569 9.95367 25.1733 9.88016 25.3896 9.80659C25.5199 9.76241 25.6502 9.71822 25.7845 9.6727C26.0691 9.58942 26.0691 9.58942 26.1913 9.4668Z" fill="#176DEF"/>
        <path d="M26.2991 3.93945C26.3115 4.65512 26.3211 5.37076 26.327 6.0865C26.3298 6.41885 26.3336 6.75113 26.3397 7.08345C26.3467 7.46544 26.3493 7.84742 26.3517 8.22946C26.3545 8.34887 26.3572 8.46827 26.3601 8.5913C26.3601 8.70194 26.3602 8.81259 26.3602 8.92659C26.362 9.07291 26.362 9.07291 26.3638 9.22219C26.2991 9.46703 26.2991 9.46703 26.0473 9.63799C25.5093 9.86292 24.9569 10.0519 24.4025 10.241C24.1841 10.3157 23.9663 10.3919 23.7485 10.4682C23.6097 10.5159 23.4708 10.5635 23.3319 10.611C23.2061 10.6544 23.0803 10.6977 22.9507 10.7424C22.6357 10.8247 22.6357 10.8247 22.3125 10.7277C22.3836 10.7277 22.4547 10.7277 22.528 10.7277C22.5635 8.96761 22.5991 7.20751 22.6357 5.39408C23.4648 5.02096 24.2826 4.66344 25.1341 4.33947C25.2353 4.30047 25.3364 4.26147 25.4407 4.22129C26.1761 3.93945 26.1761 3.93945 26.2991 3.93945Z" fill="#FC7F00"/>
        <path d="M41.7066 3.93945C42.9594 4.31531 44.1612 4.81842 45.3699 5.2971C45.3699 7.0892 45.3699 8.8813 45.3699 10.7277C41.976 9.70946 41.976 9.70946 41.7066 9.46703C41.6965 9.29442 41.694 9.12145 41.6944 8.9486C41.6944 8.83794 41.6944 8.72729 41.6944 8.61327C41.695 8.49286 41.6955 8.37246 41.6961 8.2484C41.6962 8.12585 41.6964 8.00329 41.6966 7.87703C41.6971 7.55068 41.698 7.22434 41.6992 6.89799C41.7003 6.5652 41.7008 6.2324 41.7014 5.8996C41.7025 5.24621 41.7043 4.59283 41.7066 3.93945Z" fill="#FC7F00"/>
        <path d="M35.2922 16.952C35.4018 16.9843 35.4018 16.9843 35.5136 17.0172C35.7444 17.0854 35.9747 17.1551 36.205 17.2247C36.3625 17.2715 36.52 17.3183 36.6775 17.3649C37.0614 17.4787 37.4448 17.5938 37.828 17.7096C37.828 17.7416 37.828 17.7736 37.828 17.8066C37.6232 17.8347 37.6232 17.8347 37.4142 17.8634C37.2311 17.8889 37.0481 17.9144 36.865 17.9399C36.7755 17.9522 36.686 17.9644 36.5937 17.977C36.1453 18.0399 35.7026 18.1104 35.2602 18.2021C34.2056 18.4183 33.2367 18.2437 32.1929 18.0501C31.5934 17.9389 31.003 17.7625 30.3936 17.7096C30.6231 17.503 30.7369 17.5605 31.04 17.4766C31.1262 17.4525 31.2125 17.4283 31.3013 17.4034C31.3928 17.3784 31.4844 17.3535 31.5787 17.3278C31.6717 17.3021 31.7647 17.2764 31.8604 17.2499C32.0439 17.1992 32.2274 17.1487 32.411 17.0985C32.6096 17.0437 32.8073 16.9863 33.0047 16.9281C33.0941 16.902 33.1836 16.8759 33.2757 16.8489C33.3485 16.8272 33.4213 16.8054 33.4963 16.783C34.1333 16.6671 34.6881 16.7667 35.2922 16.952Z" fill="#9D0D15"/>
    </g>
    <defs>
        <clipPath id="clip0_606_1158">
            <rect width="68" height="24" fill="white"/>
        </clipPath>
    </defs>
</svg>
